<svg xmlns="http://www.w3.org/2000/svg" viewBox="0 0 420 520" width="420" height="520" role="img" aria-label="Celso &amp; Karen monogram crest">
  <defs>
    <linearGradient id="gold" x1="0" y1="0" x2="1" y2="1">
      <stop offset="0" stop-color="#8A6A2A"></stop>
      <stop offset="0.28" stop-color="#C2A65A"></stop>
      <stop offset="0.5" stop-color="#F0E0A8"></stop>
      <stop offset="0.72" stop-color="#C2A65A"></stop>
      <stop offset="1" stop-color="#8A6A2A"></stop>
    </linearGradient>
    
  </defs>

  
  <g fill="none" stroke="url(#gold)">
    <circle cx="210" cy="232" r="150" stroke-width="2"></circle>
    <circle cx="210" cy="232" r="158" stroke-width="1" opacity="0.6"></circle>
  </g>

  
  <g fill="url(#gold)" opacity="0.92">
    
    <g transform="translate(60,232)">
      <ellipse cx="0" cy="40" rx="6" ry="15" transform="rotate(28 0 40)"></ellipse>
      <ellipse cx="4" cy="14" rx="6" ry="16" transform="rotate(20 4 14)"></ellipse>
      <ellipse cx="10" cy="-12" rx="6" ry="16" transform="rotate(10 10 -12)"></ellipse>
      <ellipse cx="20" cy="-38" rx="6" ry="15" transform="rotate(0 20 -38)"></ellipse>
      <ellipse cx="33" cy="-62" rx="5" ry="13" transform="rotate(-10 33 -62)"></ellipse>
    </g>
    
    <g transform="translate(360,232) scale(-1,1)">
      <ellipse cx="0" cy="40" rx="6" ry="15" transform="rotate(28 0 40)"></ellipse>
      <ellipse cx="4" cy="14" rx="6" ry="16" transform="rotate(20 4 14)"></ellipse>
      <ellipse cx="10" cy="-12" rx="6" ry="16" transform="rotate(10 10 -12)"></ellipse>
      <ellipse cx="20" cy="-38" rx="6" ry="15" transform="rotate(0 20 -38)"></ellipse>
      <ellipse cx="33" cy="-62" rx="5" ry="13" transform="rotate(-10 33 -62)"></ellipse>
    </g>
  </g>

  
  <g fill="url(#gold)">
    <path d="M210 44 l10 22 l22 -14 l-7 26 l24 4 l-20 16 l16 18 l-26 -6 l-9 24 l-9 -24 l-26 6 l16 -18 l-20 -16 l24 -4 l-7 -26 l22 14 z" opacity="0.95"></path>
    <circle cx="210" cy="92" r="4" fill="#3F0F1C"></circle>
  </g>

  
  <text x="150" y="262" class="mono" font-size="118" fill="url(#gold)" text-anchor="middle">C</text>
  <text x="210" y="276" class="mono" font-size="86" fill="#5E1626" text-anchor="middle" font-style="italic">&amp;</text>
  <text x="272" y="262" class="mono" font-size="118" fill="url(#gold)" text-anchor="middle">K</text>

  
  <text x="210" y="332" class="label" font-size="20" letter-spacing="6" fill="#5E1626" text-anchor="middle">CELSO · KAREN</text>

  
  <g fill="url(#gold)">
    <circle cx="178" cy="356" r="2.4"></circle>
    <circle cx="210" cy="356" r="3.2"></circle>
    <circle cx="242" cy="356" r="2.4"></circle>
  </g>

  <text x="210" y="392" class="label" font-size="15" letter-spacing="8" fill="#7E5F23" text-anchor="middle">X · OCTUBRE · MMXXVI</text>
</svg>
